:SAMPLES-PER-SECOND 30
:FRAME-RANGE 1-2009
:FULLY-SPECIFIED
:DEGREES
1131
root  6.17512 39.5167 -41.446 6.5957 77.2485 7.28693
RightUpLeg  -7.74563 -15.3286 0.498408
RightLeg  35.7724 1.09552 0.594654
RightFoot  -11.8671 0.00172035 17.9245
RightToes  4.71047e-010 1.2921e-014 -6.02303e-014
Spine  7.21867 1.17087 -3.72707
Spine1  0.105831 1.64905 -3.94668
HEad  0.184797 57.8128 -13.1428
LeftShoulder1  0.89455 0.41066 -22.5885
LeftArm  -23.3761 -28.0021 -6.68717
LeftForeArm  23.4662 -18.6679 -6.20427
LeftHand  -0.358163 2.4117 13.7569
RightShoulder  8.88159 11.734 51.035
RightArm  33.3774 -1.68779 17.6017
RightForeArm  7.22222 12.7601 13.2128
RightHand  0.453028 0.176128 9.46006
LeftUpLeg  -14.8532 11.9153 -0.797744
LeftLeg  14.6847 -2.98464 -4.06325
LeftFoot  2.49442 -0.235786 1.81888
LeftToes  2.15783e-011 -7.56106e-012 -8.20802e-012
1132
root  6.35354 39.564 -41.4449 4.42502 76.6285 4.99335
RightUpLeg  -9.90242 -18.132 -0.206211
RightLeg  39.5762 -2.06272 -2.0994
RightFoot  -10.4411 -0.213883 17.9934
RightToes  4.71047e-010 1.2921e-014 -6.02303e-014
Spine  7.44216 1.0942 -3.92368
Spine1  0.170659 1.48102 -3.61353
HEad  -1.16229 58.9303 -14.9973
LeftShoulder1  0.955185 0.211997 -22.693
LeftArm  -23.3442 -29.4106 -7.40598
LeftForeArm  22.4074 -21.4937 -4.44549
LeftHand  -0.339106 2.78373 14.8362
RightShoulder  8.81526 11.747 50.6167
RightArm  35.4993 -1.64936 17.5215
RightForeArm  5.24329 14.0832 12.3744
RightHand  0.404487 -0.042292 8.82409
LeftUpLeg  -14.528 12.3073 -0.0843563
LeftLeg  14.6969 -2.68309 -4.27232
LeftFoot  2.1065 -0.203489 1.61793
LeftToes  2.15783e-011 -7.56106e-012 -8.20802e-012
1133
root  6.48846 39.6645 -41.423 2.37631 76.3199 2.84506
RightUpLeg  -11.6166 -19.6871 -0.98671
RightLeg  42.6415 -5.3019 -5.49653
RightFoot  -10.6331 -0.172136 15.9963
RightToes  4.71047e-010 1.2921e-014 -6.02303e-014
Spine  7.62628 0.981675 -3.94867
Spine1  0.163057 1.29698 -3.27503
HEad  -1.88741 59.6248 -15.5553
LeftShoulder1  0.996037 0.109038 -23.0355
LeftArm  -24.1195 -30.8657 -8.45239
LeftForeArm  22.3884 -24.947 -4.15795
LeftHand  -0.300111 3.09206 14.8091
RightShoulder  8.78101 11.7147 50.5285
RightArm  34.1723 -1.46721 17.2218
RightForeArm  4.56406 14.1572 12.2834
RightHand  0.351776 -0.300162 8.10601
LeftUpLeg  -13.9371 11.0702 0.595843
LeftLeg  13.9038 -1.20558 -3.80268
LeftFoot  2.13219 -0.121603 0.920302
LeftToes  2.15783e-011 -7.56106e-012 -8.20802e-012
1134
root  6.57934 39.735 -41.3584 0.476471 76.0086 0.939606
RightUpLeg  -12.8031 -19.307 -1.92259
RightLeg  44.774 -6.78781 -7.45874
RightFoot  -10.9867 -0.12052 14.6311
RightToes  4.71047e-010 1.2921e-014 -6.02303e-014
Spine  7.67403 0.9473 -3.85777
Spine1  0.344963 1.21903 -3.04089
HEad  -1.71311 59.9696 -15.0408
LeftShoulder1  1.05397 -0.0511943 -23.3612
LeftArm  -22.8982 -32.2437 -10.6837
LeftForeArm  23.9674 -29.0503 -4.98129
LeftHand  -0.317326 2.88264 14.3905
RightShoulder  8.8531 11.75 50.8211
RightArm  29.9064 -0.956205 16.7357
RightForeArm  6.25412 12.961 12.9199
RightHand  0.303504 -0.547656 7.39861
LeftUpLeg  -13.56 11.8121 1.31217
LeftLeg  13.7383 -1.71277 -4.1061
LeftFoot  2.18929 -0.11561 0.862932
LeftToes  2.15783e-011 -7.56106e-012 -8.20802e-012
1135
root  6.62657 39.7575 -41.2595 -0.934479 75.9141 -0.274658
RightUpLeg  -13.1945 -17.4972 -3.19901
RightLeg  45.6674 -6.5575 -7.4436
RightFoot  -11.4663 -0.062504 14.378
RightToes  4.71047e-010 1.2921e-014 -6.02303e-014
Spine  7.8232 0.862825 -3.95365
Spine1  0.493435 1.0502 -2.76349
HEad  -1.13754 60.1952 -14.193
LeftShoulder1  1.1142 -0.243804 -23.4512
LeftArm  -18.1774 -33.4917 -14.3588
LeftForeArm  24.3213 -32.424 -5.76542
LeftHand  -0.294596 3.0186 14.0747
RightShoulder  8.93861 11.8286 51.045
RightArm  25.7688 -0.497457 16.5834
RightForeArm  8.32682 11.6314 13.5228
RightHand  0.268564 -0.679955 6.76278
LeftUpLeg  -13.305 12.3698 1.80148
LeftLeg  14.0172 -2.30282 -4.14983
LeftFoot  2.07496 -0.0812568 0.584152
LeftToes  2.15783e-011 -7.56106e-012 -8.20802e-012
1136
root  6.63027 39.7603 -41.1228 -2.21802 76.2201 -1.29056
RightUpLeg  -12.8428 -14.6122 -4.52905
RightLeg  45.2537 -5.81394 -6.55228
RightFoot  -11.8902 -0.0106093 14.6545
RightToes  4.71047e-010 1.2921e-014 -6.02303e-014
Spine  7.89981 0.691382 -4.15289
Spine1  0.690892 0.741496 -2.2892
HEad  -0.163124 60.1227 -13.1056
LeftShoulder1  1.21378 -0.56596 -23.5531
LeftArm  -12.3047 -34.5444 -19.444
LeftForeArm  24.2814 -33.8627 -6.1299
LeftHand  -0.328765 2.42207 12.6372
RightShoulder  9.03442 11.9217 51.2758
RightArm  22.9104 -0.0626337 16.5303
RightForeArm  9.62243 10.542 13.9884
RightHand  0.236891 -0.944425 6.37845
LeftUpLeg  -13.2221 12.8751 2.15886
LeftLeg  14.5203 -3.25278 -4.12067
LeftFoot  2.02435 -0.0457858 0.286224
LeftToes  2.15783e-011 -7.56106e-012 -8.20802e-012
1137
root  6.58144 39.767 -40.951 -3.6517 76.7865 -2.4404
RightUpLeg  -11.9366 -10.7905 -5.59292
RightLeg  43.8272 -5.68185 -6.1075
RightFoot  -12.3695 0.0431542 14.1488
RightToes  4.71047e-010 1.2921e-014 -6.02303e-014
Spine  8.02164 0.493099 -4.26252
Spine1  0.866989 0.407435 -1.75819
HEad  0.249246 59.7546 -12.5763
LeftShoulder1  1.35982 -1.02673 -23.758
LeftArm  -4.99008 -35.2127 -25.1115
LeftForeArm  22.6222 -33.8106 -6.21357
LeftHand  -0.335726 2.10822 11.7032
RightShoulder  9.10294 11.9724 51.4909
RightArm  22.7909 0.148898 16.6118
RightForeArm  9.4192 10.6134 13.9501
RightHand  0.244182 -0.937139 6.55809
LeftUpLeg  -13.1633 13.3788 2.51695
LeftLeg  14.886 -4.45598 -4.08235
LeftFoot  2.21316 -0.0168078 0.0286689
LeftToes  2.15783e-011 -7.56106e-012 -8.20802e-012
1138
root  6.47286 39.7677 -40.7513 -4.66873 77.7192 -3.2829
RightUpLeg  -10.7744 -6.27937 -6.38259
RightLeg  41.4901 -5.80457 -5.75515
RightFoot  -12.7833 0.0772148 13.0093
RightToes  4.71047e-010 1.2921e-014 -6.02303e-014
Spine  8.12873 0.160017 -4.35358
Spine1  0.952541 -0.0555527 -1.19533
HEad  0.114989 59.0373 -12.5717
LeftShoulder1  1.48124 -1.33642 -24.3785
LeftArm  3.71769 -35.5355 -30.6164
LeftForeArm  20.3937 -32.3926 -5.98355
LeftHand  -0.336193 1.52107 9.99292
RightShoulder  9.15523 12.0895 51.3989
RightArm  24.344 -0.0192155 17.181
RightForeArm  8.46368 11.4742 13.5154
RightHand  0.277342 -0.59377 6.84111
LeftUpLeg  -13.2662 13.5408 2.72932
LeftLeg  14.9639 -5.61567 -4.05412
LeftFoot  2.53544 0.0346833 -0.411303
LeftToes  2.15783e-011 -7.56106e-012 -8.20802e-012
